<svg xmlns="http://www.w3.org/2000/svg" xmlns:xlink="http://www.w3.org/1999/xlink" width="22" height="16" viewBox="0 0 22 16">
    <defs>
        <rect id="a" width="22" height="16" rx="2"/>
    </defs>
    <g fill="none" fill-rule="evenodd">
        <mask id="b" fill="#fff">
            <use xlink:href="#a"/>
        </mask>
        <use fill="#FFF" xlink:href="#a"/>
        <path fill="#19BFBF" d="M0 0h22v16H0z" mask="url(#b)"/>
        <path fill="#FFF" d="M10.697 12.79a4.7 4.7 0 0 0 .606 0c.72-.867 1.18-2.457 1.257-4.257H9.44c.076 1.8.538 3.39 1.257 4.257zm-1.44-.328c-.51-1.06-.808-2.44-.866-3.929H6.314a4.793 4.793 0 0 0 2.944 3.929zm1.44-9.252c-.72.867-1.18 2.457-1.257 4.257h3.12c-.076-1.8-.538-3.39-1.257-4.257a4.7 4.7 0 0 0-.606 0zm-1.44.328a4.793 4.793 0 0 0-2.943 3.929h2.077c.058-1.49.356-2.87.867-3.929zm3.485 8.924a4.793 4.793 0 0 0 2.944-3.929h-2.077c-.058 1.49-.356 2.87-.867 3.929zm0-8.924c.511 1.06.81 2.44.867 3.929h2.077a4.793 4.793 0 0 0-2.944-3.929zM11 13.867c-3.182 0-5.762-2.627-5.762-5.867S7.818 2.133 11 2.133c3.182 0 5.762 2.627 5.762 5.867s-2.58 5.867-5.762 5.867z" mask="url(#b)"/>
    </g>
</svg>
