<svg xmlns="http://www.w3.org/2000/svg" width="16" height="12" viewBox="0 0 16 12">
    <path fill="#0D122C" fill-rule="evenodd" d="M15.27 7.84H16a8.286 8.286 0 0 0-1.935-4.985l-.497.506a.475.475 0 0 1-.686-.002.507.507 0 0 1 0-.704l.52-.52A7.873 7.873 0 0 0 8.61.012v.75a.496.496 0 0 1-.49.497.496.496 0 0 1-.49-.497V0a7.928 7.928 0 0 0-4.855 1.994l.522.541c.19.195.187.51-.002.704a.48.48 0 0 1-.687 0l-.535-.544A8.341 8.341 0 0 0 .01 7.639H.73c.268 0 .485.229.485.503a.496.496 0 0 1-.485.503H0a8.418 8.418 0 0 0 .713 2.99l.046.092a.469.469 0 0 0 .449.273H14.76a.55.55 0 0 0 .479-.278l.045-.096a8.232 8.232 0 0 0 .702-2.78h-.716a.496.496 0 0 1-.485-.502c0-.275.217-.503.485-.503zm-5.474.988c-.09.278-.242.54-.457.76a1.86 1.86 0 0 1-2.68 0 1.985 1.985 0 0 1 0-2.75c.2-.205.435-.358.692-.454l3.688-1.96a.475.475 0 0 1 .566.09.51.51 0 0 1 .087.583L9.796 8.828z"/>
</svg>
