<svg xmlns="http://www.w3.org/2000/svg" width="16" height="16" viewBox="0 0 16 16">
    <path fill="#0784FF" fill-rule="evenodd" d="M10.04.095c.194.41-.353.754-.776.903-.423.15-.911.63-.603.96a3.3 3.3 0 0 1 1.495-.399c-.056.423.484.657.902.638.42-.018.9-.122 1.212.163.4.365-.012 1.193-.54 1.082a3.709 3.709 0 0 1-2.642 1.563c.325.268.15.851-.213 1.06-.363.21-.81.168-1.227.134-.418-.035-.876-.043-1.206.219a.44.44 0 0 0-.176.263c-.038.256.26.427.514.46.253.033.545.024.712.22.127.148.136.368.243.533.455.703 1.633-.42 2.326.039.216.142.316.4.463.615.44.635 1.28.83 2.044.837.565.006 1.353.138 1.338.711a.944.944 0 0 1-.12.385 8.128 8.128 0 0 1-3.092 3.397c-.285.171-.59.333-.784.603-.195.27-.24.69 0 .92-.346.252-.869-.033-1.02-.438-.15-.406-.046-.857.067-1.277.111-.417.229-.864.1-1.277-.165-.524-.676-.845-.98-1.3-.304-.454-.222-1.283.318-1.316-.856-.75-1.754-1.522-2.85-1.811-.252-.068-.54-.124-.685-.346-.284-.436.077-1.313-.434-1.383.166.376-.26.855-.644.725a1.77 1.77 0 0 0-.282-1.44c-.188-.257-.466-.533-.375-.84.048-.164.19-.277.297-.409.57-.711.302-2.28.55-3.433A8.159 8.159 0 0 0 0 7.875C0 12.355 3.589 16 8 16s8-3.645 8-8.125C16 4.087 13.436.897 9.977 0c.025.03.048.06.063.095z"/>
</svg>
