<svg xmlns="http://www.w3.org/2000/svg" width="16" height="14" viewBox="0 0 16 14">
    <path fill="#0784FF" fill-rule="evenodd" d="M.65 7.293l2.515-.181L4.48 4.405c.157-.322.539-.52.945-.488.406.03.743.284.828.626L7.29 8.744 9.373.628c.09-.36.457-.618.884-.627.435-.014.822.235.926.597l2.017 6.54 2.152.18c.37.03.652.299.648.618-.004.32-.292.582-.664.606l-2.847.187c-.424 0-.796-.243-.906-.594l-1.22-3.944-2.188 8.515c-.097.365-.474.625-.91.627-.438-.001-.815-.264-.907-.63l-1.307-5.31-.4.822c-.144.297-.484.492-.86.491L.659 8.507C.287 8.485-.001 8.22 0 7.9c0-.316.282-.58.65-.607z"/>
</svg>
