<svg xmlns="http://www.w3.org/2000/svg" width="16" height="16" viewBox="0 0 16 16">
    <path fill="#0784FF" fill-rule="evenodd" d="M2.191.037C.996.504.244 2.212.066 3.388c-.553 3.816 2.457 7.123 5.223 9.297 2.457 1.93 7.17 5.103 9.958 2.04.355-.376.775-.931.752-1.486-.066-.931-.93-1.597-1.593-2.108-.51-.377-1.571-1.42-2.235-1.398-.598.023-.974.643-1.35 1.021l-.664.666c-.111.11-1.527-.82-1.683-.932-.575-.377-1.129-.799-1.615-1.264-.487-.467-.93-.976-1.305-1.51-.111-.154-1.019-1.508-.93-1.62 0 0 .775-.842.996-1.175.465-.71.819-1.265.288-2.108-.199-.31-.443-.555-.708-.82-.465-.445-.93-.911-1.46-1.288C3.451.48 2.965.082 2.522.015a.547.547 0 0 0-.332.022z"/>
</svg>
