<svg xmlns="http://www.w3.org/2000/svg" width="20" height="17" viewBox="0 0 20 17">
    <path fill="#9FA2A6" fill-rule="evenodd" d="M9.69.102l-9.5 7.5a.517.517 0 0 0-.086.71c.161.208.504.243.71.079l9.188-7.25 9.187 7.25c.207.164.54.128.704-.079.162-.206.144-.546-.079-.71l-9.5-7.5A.574.574 0 0 0 9.988 0a.536.536 0 0 0-.297.102zM3.752 7.726l-1 .79V16.5a.5.5 0 0 0 .5.5h4.75a.5.5 0 0 0 .5-.5V12h3v4.5a.5.5 0 0 0 .5.5h4.75a.5.5 0 0 0 .5-.5V8.515l-1-.789V16h-3.75v-4.5a.5.5 0 0 0-.5-.5h-4a.5.5 0 0 0-.5.5V16h-3.75V7.726z"/>
</svg>
