<svg xmlns="http://www.w3.org/2000/svg" width="16" height="15" viewBox="0 0 16 15">
    <path fill="#0784FF" fill-rule="evenodd" d="M8.964 12.059h1.004a6.032 6.032 0 0 0 5.224-9.044A6.032 6.032 0 0 0 9.968.001h-3.85A6.024 6.024 0 0 0 .553 8.54a6.027 6.027 0 0 0 4.69 3.453 5.414 5.414 0 0 1-.153 2.375.484.484 0 0 0 .695.57c1.004-.501 2.424-1.436 3.18-2.88zM5.151 3.357h5.805a.586.586 0 1 1 0 1.17H5.15a.586.586 0 1 1 0-1.17zm0 2.089h5.805a.586.586 0 0 1 0 1.17H5.15a.586.586 0 1 1 0-1.17zm0 3.255a.586.586 0 1 1 0-1.17h5.805a.586.586 0 1 1 0 1.17H5.15z"/>
</svg>
