<svg xmlns="http://www.w3.org/2000/svg" width="18" height="18" viewBox="0 0 18 18">
    <g fill="#9FA2A6" fill-rule="evenodd">
        <path d="M17.29.118H.71a.593.593 0 0 0-.592.593v16.578a.592.592 0 0 0 .593.593h16.578a.592.592 0 0 0 .593-.593V.711a.592.592 0 0 0-.593-.593zm-.593 16.58H1.303V1.302h15.394v15.394z"/>
        <path d="M4.263 14.751a.626.626 0 0 0 .42-.157.512.512 0 0 0 .172-.38V8.85c0-.297-.265-.537-.592-.537-.326 0-.592.24-.592.537v5.366c0 .141.062.278.173.379.111.1.262.157.42.157zM9 14.751a.626.626 0 0 0 .42-.157.512.512 0 0 0 .172-.38V6.704c0-.297-.265-.537-.592-.537-.327 0-.592.24-.592.537v7.512c0 .141.062.278.173.379.11.1.262.157.419.157zM13.737 14.751a.626.626 0 0 0 .419-.157.512.512 0 0 0 .173-.38V3.485c0-.298-.266-.537-.592-.537-.327 0-.592.24-.592.536v10.732c0 .141.062.278.173.379.11.1.262.157.419.157z"/>
    </g>
</svg>
