<svg xmlns="http://www.w3.org/2000/svg" width="17" height="22" viewBox="0 0 17 22">
    <path fill="none" fill-rule="evenodd" stroke="#FFF" d="M5.998 18.5h5a2.5 2.5 0 0 1-5 0zM7.207 1.515a1.87 1.87 0 0 0-.584 1.363v.937a5.625 5.625 0 0 0-3.75 5.312v1.562c0 .993-.393 1.947-1.096 2.65l-.26.258a1.776 1.776 0 0 0-.35 2.007 1.823 1.823 0 0 0 1.669 1.022h11.392c.977 0 1.769-.793 1.769-1.769v-.078c0-.421-.151-.83-.425-1.15l-.547-.625a3.75 3.75 0 0 1-.903-2.453V9.127a5.624 5.624 0 0 0-3.75-5.312v-.831a1.947 1.947 0 0 0-1.774-1.981 1.872 1.872 0 0 0-1.391.512z"/>
</svg>
