<svg xmlns="http://www.w3.org/2000/svg" width="32" height="32" viewBox="0 0 32 32">
    <g fill="#FFF" fill-rule="nonzero">
        <path d="M15.814 0C7.096 0 0 7.096 0 15.814c0 8.72 7.096 15.815 15.814 15.815 8.766.046 15.861-7.05 15.861-15.815S24.58 0 15.815 0zm0 27.501c-6.4 0-11.64-5.24-11.64-11.687 0-6.4 5.24-11.64 11.64-11.64 6.447 0 11.687 5.24 11.687 11.64 0 6.447-5.24 11.687-11.687 11.687z"/>
        <circle cx="19.757" cy="11.872" r="3.293"/>
        <circle cx="19.757" cy="19.757" r="3.293"/>
        <circle cx="11.872" cy="19.757" r="3.293"/>
        <circle cx="11.872" cy="11.872" r="3.293"/>
    </g>
</svg>
